<svg id="SvgjsSvg1001" width="100%" height="100%" xmlns="http://www.w3.org/2000/svg" version="1.1" xmlns:xlink="http://www.w3.org/1999/xlink" xmlns:svgjs="http://svgjs.com/svgjs"><defs id="SvgjsDefs1002"></defs><g id="SvgjsG1008"><svg xmlns="http://www.w3.org/2000/svg" enable-background="new 0 0 100 100" viewBox="0 0 100 100" width="100%" height="100%"><path d="M59.0611877 20.9756413c0 .8509388-.4599991 1.6099339-1.1959724 2.0238914l-10.4183121 5.7037582L41.743145 39.1216011c-.3909378.7359734-1.1729507 1.1959724-2.0008698 1.1959724-.8509369 0-1.6099319-.4599991-2.0238914-1.1959724l-5.7036171-10.4183102-10.3954296-5.7037582c-.7589931-.4139576-1.1958332-1.1729527-1.1958332-2.0238914 0-.8279171.4368401-1.6097927 1.1958332-2.0008698l10.3954296-5.7036171 5.7036171-10.4184513c.8050385-1.4718062 3.2428856-1.4718062 4.0247612 0l5.7037582 10.4184513 10.4183121 5.7036171C58.6011887 19.3658485 59.0611877 20.1477242 59.0611877 20.9756413zM68.7665482 52.4148827c0 .8509369-.4599991 1.6097908-1.1958389 2.0238914l-7.1985817 3.9326744-3.9328194 7.2216072c-.4139557.7359772-1.1959724 1.1959763-2.0238914 1.1959763-.8509369 0-1.6099319-.4599991-2.0238914-1.1959763l-3.9328156-7.2216072-7.2214661-3.9326744c-.7359734-.4141006-1.1959724-1.1729546-1.1959724-2.0238914 0-.8280602.4599991-1.6099319 1.1959724-2.0008698l7.2214661-3.9558411 3.9328156-7.1985855c.8050385-1.4719467 3.2428894-1.4719467 4.0477829 0l3.9328194 7.1985855 7.1985817 3.9558411C68.3065491 50.8049507 68.7665482 51.5868225 68.7665482 52.4148827z" fill="#009799" class="svgShape color000000-0 selectable"></path><path d="M21.1944294,98.251152c-0.3144341,0-0.631115-0.0651321-0.9320736-0.1976471
			c-0.8310051-0.3683395-1.3677902-1.1926041-1.3677902-2.1022186V80.4227142
			c-5.0983305-1.0645828-8.9389238-5.5946884-8.9389238-11.0029602V40.2065392
			c0-6.1966057,5.042182-11.2387867,11.2387877-11.2387867h4.9680653c1.2712135,0,2.2998638,1.0286503,2.2998638,2.2998638
			s-1.0286503,2.2998657-2.2998638,2.2998657h-4.9680653c-3.6609154,0-6.63906,2.9781418-6.63906,6.6390572V69.419754
			c0,3.6609116,2.9781446,6.639061,6.63906,6.639061c1.2712135,0,2.2998638,1.0286484,2.2998638,2.2998581v12.3977051
			l15.5353127-14.1001434c0.4222374-0.3840561,0.9747467-0.5974197,1.5452194-0.5974197h38.2307472
			c3.6609116,0,6.639061-2.9781494,6.639061-6.639061V40.2065392c0-3.6609154-2.9781494-6.6390572-6.639061-6.6390572H53.7586136
			c-1.2712135,0-2.2998619-1.0286522-2.2998619-2.2998657s1.0286484-2.2998638,2.2998619-2.2998638h25.0469589
			c6.1966019,0,11.2387848,5.042181,11.2387848,11.2387867V69.419754c0,6.1966019-5.0421829,11.2387848-11.2387848,11.2387848
			H41.4619789L22.7396507,97.6537247C22.3084259,98.0467682,21.7559204,98.251152,21.1944294,98.251152z" fill="#757575" class="svgShape color000000-1 selectable"></path></svg></g></svg>